PathFileType	4	(X/Y/Z)	c:/Users/goper/Files/vsCode/490R/osim_files/A03/A03_Slow_05.trc
DataRate	CameraRate	NumFrames	NumMarkers	Units                	OrigDataRate	OrigDataStartFrame	OrigNumFrames
250.00	250.00	6	36	mm	250.0	647	2584
                Frame#	Time	LPSIS			LASIS			LTH1			LTH2			LTH3			LTH4			LLFE			LMFE			LSH1			LSH2			LSH3			LSH4			LLMAL			LMMAL			LCAL			LMTP5			LTOE			LMTP1			RPSIS			RASIS			RTH1			RTH2			RTH3			RTH4			RLFE			RMFE			RSH1			RSH2			RSH3			RSH4			RLMAL			RMMAL			RCAL			RMTP1			RTOE			RMTP5		
		X1	Y1	Z1	X2	Y2	Z2	X3	Y3	Z3	X4	Y4	Z4	X5	Y5	Z5	X6	Y6	Z6	X7	Y7	Z7	X8	Y8	Z8	X9	Y9	Z9	X10	Y10	Z10	X11	Y11	Z11	X12	Y12	Z12	X13	Y13	Z13	X14	Y14	Z14	X15	Y15	Z15	X16	Y16	Z16	X17	Y17	Z17	X18	Y18	Z18	X19	Y19	Z19	X20	Y20	Z20	X21	Y21	Z21	X22	Y22	Z22	X23	Y23	Z23	X24	Y24	Z24	X25	Y25	Z25	X26	Y26	Z26	X27	Y27	Z27	X28	Y28	Z28	X29	Y29	Z29	X30	Y30	Z30	X31	Y31	Z31	X32	Y32	Z32	X33	Y33	Z33	X34	Y34	Z34	X35	Y35	Z35	X36	Y36	Z36

647	2.58400	1821.12207	1056.82556	285.43500	0.00000	0.00000	0.00000	1740.74634	630.72687	443.92096	1743.78455	586.78247	444.36417	1685.97449	618.72522	431.61911	1699.21790	580.69690	432.22733	1771.24280	552.10388	433.04385	1738.05225	536.31079	280.79410	1830.77075	474.64648	428.78552	1839.84119	425.28046	427.67532	1772.03845	456.85419	428.16962	1789.68054	412.18054	422.15094	0.00000	0.00000	0.00000	0.00000	0.00000	0.00000	1741.96326	53.55478	300.80716	0.00000	0.00000	0.00000	0.00000	0.00000	0.00000	1910.02271	99.30297	393.19730	1815.59387	1057.12842	206.42064	1559.87390	983.68634	125.42449	1546.67725	611.41089	74.45866	1538.23828	574.71320	75.01577	1487.43921	627.44739	75.97580	1482.26794	588.24402	79.27163	1504.01697	550.84161	92.44934	1470.43420	562.57520	211.15300	0.00000	0.00000	0.00000	1517.45886	433.19138	71.84048	1472.07129	489.14917	81.44656	0.00000	0.00000	0.00000	1374.35913	144.63129	84.68808	0.00000	0.00000	0.00000	1395.96069	79.98814	143.64333	1190.71289	156.53165	149.87549	0.00000	0.00000	0.00000	1204.15051	133.47359	36.90816
648	2.58800	1816.88440	1056.11584	284.82123	0.00000	0.00000	0.00000	1737.37817	630.25684	443.81754	1740.59937	586.36572	444.33505	1682.67285	618.14563	431.74146	1696.05457	580.07678	432.35767	1767.99939	551.66241	433.02487	1734.83350	535.65161	280.78363	1827.99500	474.58569	428.71994	1837.38562	425.26715	427.60611	1769.33435	456.37152	428.07935	1785.78735	410.13745	421.18628	0.00000	0.00000	0.00000	0.00000	0.00000	0.00000	1741.79980	53.43737	300.79874	0.00000	0.00000	0.00000	0.00000	0.00000	0.00000	1909.69434	99.54016	393.19250	1811.23291	1056.35510	205.85100	1555.49609	982.92664	125.36005	1541.89319	610.81256	74.49924	1531.62085	574.40283	76.42572	0.00000	0.00000	0.00000	1477.50244	587.78973	79.53250	1499.18982	550.15485	92.35943	1471.98364	559.58154	210.74326	1525.32239	469.93607	86.52578	1512.30579	432.40030	71.68142	1466.82837	488.14743	81.24055	0.00000	0.00000	0.00000	1368.69458	144.20210	84.71712	0.00000	0.00000	0.00000	1388.66895	78.73382	143.70239	1186.05493	157.00015	149.45712	1181.25842	185.39545	94.55187	1198.62537	133.73088	36.34918
649	2.59200	1812.57214	1055.35901	284.26355	0.00000	0.00000	0.00000	1734.01086	629.81726	443.71756	1737.40308	585.93616	444.31223	1679.25305	617.44385	431.86649	1691.33923	577.77539	431.82043	1764.66406	551.13556	432.99347	1731.72424	535.13440	280.61310	1825.25146	474.56100	428.67703	1834.81653	425.22256	427.53751	1766.65869	455.97845	428.06097	1784.93408	411.60095	422.06226	0.00000	0.00000	0.00000	0.00000	0.00000	0.00000	1741.64099	53.32756	300.77414	0.00000	0.00000	0.00000	0.00000	0.00000	0.00000	1909.44373	99.84734	393.25983	1806.86462	1055.58630	205.30228	1550.73975	982.24652	125.27946	1537.00085	610.21759	74.47658	1526.63489	573.85980	76.41865	0.00000	0.00000	0.00000	1472.62378	587.36487	79.73753	1492.76318	547.95319	92.99957	0.00000	0.00000	0.00000	1520.36389	469.19504	86.31516	1507.25098	431.72672	71.51598	1463.55481	489.00836	79.70993	1454.65564	441.98480	65.27844	1363.26501	143.67545	84.76061	0.00000	0.00000	0.00000	1382.86072	78.13400	143.99564	1178.66553	157.18306	148.40404	1176.03296	185.60234	93.97497	1193.40991	133.75237	35.94259
650	2.59600	1808.29419	1054.62866	283.68381	0.00000	0.00000	0.00000	1730.71570	629.40973	443.69467	1734.22864	585.51569	444.32620	1676.04517	616.84418	431.95242	1688.11157	577.14105	431.92856	1761.10352	550.11517	433.23730	1728.41211	534.33380	280.65640	1822.45996	474.52737	428.62582	1832.36487	425.28845	427.52356	1763.99292	455.51904	428.01358	1782.61035	411.35944	422.09543	0.00000	0.00000	0.00000	0.00000	0.00000	0.00000	1741.47961	53.20952	300.79004	0.00000	0.00000	0.00000	0.00000	0.00000	0.00000	1909.22888	100.17932	393.35950	1802.51160	1054.80432	204.74886	1546.10132	981.54718	125.19991	1532.01074	609.74164	74.39613	1521.61499	573.37976	76.31471	0.00000	0.00000	0.00000	1467.56763	586.91479	79.91382	1489.34900	549.02722	92.07960	1462.54260	558.26740	210.97987	1515.33154	468.52811	86.15870	1502.14514	431.03149	71.32418	1458.87048	488.80118	79.35873	0.00000	0.00000	0.00000	1358.15515	143.03946	84.90919	0.00000	0.00000	0.00000	1377.51062	77.48370	144.24269	1174.20520	156.89850	148.17570	1171.15051	185.52682	93.61235	1188.49084	133.49539	35.54833
651	2.60000	1803.99707	1053.89014	283.09604	0.00000	0.00000	0.00000	1727.35986	628.93591	443.60291	1731.03064	585.08771	444.28384	1672.38098	616.23938	432.11880	1684.91040	576.53284	432.03549	1757.76599	549.62891	433.19861	1725.24731	533.76202	280.56232	1819.57703	474.43091	428.53821	1829.86572	425.32544	427.52869	1761.31970	455.13760	428.00830	1780.07898	410.97299	421.94473	0.00000	0.00000	0.00000	0.00000	0.00000	0.00000	1741.33569	53.11832	300.76740	0.00000	0.00000	0.00000	0.00000	0.00000	0.00000	1908.93750	100.49271	393.38553	1798.13257	1054.01392	204.19373	1541.62744	980.82635	125.04964	1526.96729	609.30823	74.21542	0.00000	0.00000	0.00000	0.00000	0.00000	0.00000	1462.32202	586.16425	79.92028	1488.76819	549.70868	94.85114	1451.10535	559.55341	211.14027	1510.24060	467.85690	85.96816	1497.10876	430.39841	71.17426	1452.78369	486.87634	79.73235	0.00000	0.00000	0.00000	1353.40454	142.37572	84.99002	0.00000	0.00000	0.00000	1372.58899	76.74109	144.45146	1169.37561	156.43687	148.02991	1166.54883	184.86435	93.50667	1183.83191	132.95821	35.44072
652	2.60400	1799.68774	1053.14832	282.53079	0.00000	0.00000	0.00000	1723.98926	628.49237	443.50735	1727.84070	584.69141	444.25879	1669.26550	615.51843	432.22900	1681.72131	575.92102	432.21039	1754.42969	549.18097	433.16660	1721.90027	532.96472	280.02274	1816.67236	474.38086	428.50192	1827.21021	425.26495	427.40210	1758.50928	454.64999	427.91690	1777.67065	410.70355	421.96848	0.00000	0.00000	0.00000	0.00000	0.00000	0.00000	1741.22253	53.03453	300.74008	0.00000	0.00000	0.00000	0.00000	0.00000	0.00000	1908.63965	100.83295	393.41763	1793.74500	1053.20288	203.66162	1536.94775	980.22131	124.85709	1521.78149	608.80176	74.08305	0.00000	0.00000	0.00000	1462.90356	625.61243	77.56474	1457.17810	585.83173	79.91653	1483.57043	549.25702	94.52557	1444.49268	559.03015	211.73962	1505.16040	467.23187	85.78629	1492.11523	429.76163	71.01830	1447.73108	486.20712	79.45865	1439.49304	440.05237	64.70543	1348.92688	141.57841	85.08601	0.00000	0.00000	0.00000	1374.40479	79.58851	145.95503	1164.14844	155.87886	147.91716	1162.05383	183.98207	93.46191	1180.52795	131.74603	34.46120
